:FULLY-SPECIFIED
:DEGREES
3318
root 0.932343 15.7385 -2.31009 5449.73 -95.1867 -5445.2
lowerback 4.43441 0.672299 -8.45154
upperback -2.04817 0.352343 0.164874
thorax -4.69967 0.431002 4.89172
lowerneck -16.0049 1.05599 1.63093
upperneck 19.9884 1.57668 -3.04337
head 8.94354 0.467255 -1.12423
rclavicle 5.1684e-015 -8.64713e-015
rhumerus -34.35 -14.5508 -82.1523
rradius 16.1223
rwrist 15.5108
rhand -28.2416 -17.7124
rfingers 7.12502
rthumb -1.61929 -47.686
lclavicle 5.1684e-015 -8.64713e-015
lhumerus -17.8314 -14.502 93.134
lradius 35.8481
lwrist 15.5018
lhand -32.8299 16.5287
lfingers 7.12502
lthumb -6.04995 46.4223
rfemur -31.2854 -0.936807 17.0726
rtibia 49.0034
rfoot -17.1314 -23.9485
rtoes -10.4891
lfemur -7.05238 -3.27883 -31.0627
ltibia 21.5581
lfoot -13.5988 8.73317
ltoes -7.22135
3319
root 0.951235 15.7412 -2.31495 5452.23 -95.2563 -5447.46
lowerback 4.26907 0.659054 -8.63616
upperback -2.11011 0.331926 0.107736
thorax -4.67042 0.425479 4.9375
lowerneck -16.0586 1.01701 1.60599
upperneck 20.0008 1.52369 -3.01711
head 8.95577 0.443239 -1.11764
rclavicle -1.51076e-014 3.17062e-014
rhumerus -33.7345 -13.9869 -82.7149
rradius 16.4909
rwrist 15.4829
rhand -28.4816 -17.8052
rfingers 7.12502
rthumb -1.85103 -47.7769
lclavicle -1.51076e-014 3.17062e-014
lhumerus -18.0231 -14.6702 93.1781
lradius 35.8205
lwrist 15.5739
lhand -32.9038 16.4608
lfingers 7.12502
lthumb -6.12136 46.3523
rfemur -31.6097 -0.565434 16.9647
rtibia 46.5888
rfoot -17.3938 -23.9331
rtoes -9.92468
lfemur -6.38284 -3.2938 -31.2833
ltibia 20.8502
lfoot -13.6217 8.61987
ltoes -7.25611
3320
root 0.972293 15.7502 -2.32156 5454.23 -95.3003 -5449.25
lowerback 4.16831 0.650587 -8.78032
upperback -2.16247 0.31602 0.0677639
thorax -4.66803 0.422287 4.97799
lowerneck -16.0593 0.980793 1.59562
upperneck 19.9706 1.47716 -3.02064
head 8.94425 0.420877 -1.1226
rclavicle -6.75868e-015 8.05078e-015
rhumerus -33.0461 -13.556 -83.2089
rradius 16.7179
rwrist 15.6607
rhand -28.7283 -17.9312
rfingers 7.12502
rthumb -2.08928 -47.9007
lclavicle -6.75868e-015 8.05078e-015
lhumerus -18.247 -14.7742 93.2383
lradius 35.7929
lwrist 15.761
lhand -33.0271 16.4345
lfingers 7.12502
lthumb -6.24038 46.3226
rfemur -31.8066 -0.154545 16.8777
rtibia 44.058
rfoot -17.5434 -23.6726
rtoes -9.23912
lfemur -5.65728 -3.17092 -31.4101
ltibia 20.0986
lfoot -13.4494 8.39467
ltoes -8.30163
3321
root 0.989433 15.7576 -2.32757 5456.05 -95.3801 -5450.81
lowerback 3.94284 0.662147 -8.87494
upperback -2.20817 0.340832 -0.0149184
thorax -4.59257 0.43333 4.94245
lowerneck -16.0685 0.9359 1.64198
upperneck 19.9378 1.40857 -3.04367
head 8.93334 0.39053 -1.14634
rclavicle 1.98785e-015 -2.37548e-014
rhumerus -32.3183 -13.0703 -83.7823
rradius 17.0615
rwrist 14.8816
rhand -28.8014 -17.7185
rfingers 7.12502
rthumb -2.15987 -47.6873
lclavicle 1.98785e-015 -2.37548e-014
lhumerus -18.49 -14.701 93.2836
lradius 35.6975
lwrist 15.6052
lhand -32.947 16.3802
lfingers 7.12502
lthumb -6.16309 46.2706
rfemur -32.0155 0.404844 16.7169
rtibia 41.459
rfoot -17.5337 -23.4981
rtoes -9.40048
lfemur -4.90224 -3.13567 -31.5582
ltibia 19.2327
lfoot -13.2549 8.21068
ltoes -8.7351
3322
root 1.00808 15.7678 -2.33428 5457.61 -95.4384 -5452.13
lowerback 3.76218 0.666051 -8.95445
upperback -2.25389 0.354336 -0.0593548
thorax -4.54106 0.440247 4.93966
lowerneck -16.1104 0.898304 1.62894
upperneck 19.9143 1.36261 -3.05361
head 8.93169 0.36737 -1.15297
rclavicle -6.55989e-015 1.2424e-014
rhumerus -31.561 -12.2041 -84.4734
rradius 17.5064
rwrist 13.6731
rhand -28.7723 -17.8162
rfingers 7.12502
rthumb -2.13182 -47.7853
lclavicle -6.55989e-015 1.2424e-014
lhumerus -18.7498 -14.7177 93.3586
lradius 35.5619
lwrist 15.6793
lhand -32.9235 16.3399
lfingers 7.12502
lthumb -6.14038 46.2309
rfemur -32.1436 0.877465 16.5696
rtibia 38.8016
rfoot -17.4032 -23.0742
rtoes -9.97268
lfemur -4.07188 -3.0858 -31.6554
ltibia 18.2234
lfoot -13.0378 8.00452
ltoes -9.02342
3323
root 1.02508 15.7814 -2.34211 5458.85 -95.4985 -5453.11
lowerback 3.56219 0.692976 -8.99329
upperback -2.33181 0.400379 -0.117863
thorax -4.5168 0.463823 4.89668
lowerneck -16.0622 0.847145 1.62265
upperneck 19.8962 1.29696 -3.07072
head 8.91501 0.334707 -1.16573
rclavicle -7.15625e-015 1.98785e-015
rhumerus -30.9388 -11.2385 -85.163
rradius 17.9879
rwrist 12.694
rhand -28.95 -17.7703
rfingers 7.12502
rthumb -2.30347 -47.7377
lclavicle -7.15625e-015 1.98785e-015
lhumerus -19.0874 -14.8145 93.4468
lradius 35.3308
lwrist 15.6063
lhand -32.8176 16.2625
lfingers 7.12502
lthumb -6.03812 46.1564
rfemur -32.2167 1.58588 16.3649
rtibia 36.1218
rfoot -17.2284 -22.6379
rtoes -11.0464
lfemur -3.2018 -2.88532 -31.719
ltibia 17.1117
lfoot -12.7476 7.66255
ltoes -9.44926
3324
root 1.03864 15.7923 -2.34866 5460.71 -95.5979 -5454.71
lowerback 3.35357 0.703928 -9.10935
upperback -2.40205 0.422455 -0.171753
thorax -4.47731 0.476963 4.90408
lowerneck -16.1049 0.78337 1.56375
upperneck 19.9395 1.22086 -3.05696
head 8.93522 0.295309 -1.16097
rclavicle 8.74653e-015 -1.33186e-014
rhumerus -30.2455 -10.6366 -85.6479
rradius 18.4503
rwrist 11.6479
rhand -28.9203 -17.8772
rfingers 7.12502
rthumb -2.27475 -47.8449
lclavicle 8.74653e-015 -1.33186e-014
lhumerus -19.4955 -14.908 93.6199
lradius 35.0237
lwrist 15.4655
lhand -32.989 16.0586
lfingers 7.12502
lthumb -6.20356 45.9478
rfemur -32.2682 2.25832 16.0171
rtibia 33.471
rfoot -17.0809 -22.2008
rtoes -11.9208
lfemur -2.27063 -2.77864 -31.8632
ltibia 15.9093
lfoot -12.388 7.48362
ltoes -10.5398
